<?xml version="1.0" encoding="UTF-8" standalone="no"?>
<!DOCTYPE svg PUBLIC "-//W3C//DTD SVG 1.1//EN" "http://www.w3.org/Graphics/SVG/1.1/DTD/svg11.dtd">
<svg version="1.1" xmlns="http://www.w3.org/2000/svg" xmlns:xlink="http://www.w3.org/1999/xlink" preserveAspectRatio="xMidYMid meet" viewBox="0 0 640 640" width="640" height="640"><defs><path d="M176.61 111.01C187.65 111.01 196.61 119.97 196.61 131.01C196.61 210.71 196.61 429.78 196.61 509.48C196.61 520.52 187.65 529.48 176.61 529.48C152.55 529.48 100.38 529.48 76.33 529.48C65.28 529.48 56.33 520.52 56.33 509.48C56.33 429.78 56.33 210.71 56.33 131.01C56.33 119.97 65.28 111.01 76.33 111.01C100.38 111.01 152.55 111.01 176.61 111.01Z" id="a9quPn2o7"></path><path d="M371.36 112.01C382.41 112.01 391.36 120.97 391.36 132.01C391.36 211.71 391.36 430.78 391.36 510.48C391.36 521.52 382.41 530.48 371.36 530.48C347.31 530.48 295.14 530.48 271.08 530.48C260.04 530.48 251.08 521.52 251.08 510.48C251.08 430.78 251.08 211.71 251.08 132.01C251.08 120.97 260.04 112.01 271.08 112.01C295.14 112.01 347.31 112.01 371.36 112.01Z" id="b2bFP26awC"></path><path d="M566.25 111.01C577.3 111.01 586.25 119.97 586.25 131.01C586.25 210.71 586.25 429.78 586.25 509.48C586.25 520.52 577.3 529.48 566.25 529.48C542.2 529.48 490.03 529.48 465.97 529.48C454.93 529.48 445.97 520.52 445.97 509.48C445.97 429.78 445.97 210.71 445.97 131.01C445.97 119.97 454.93 111.01 465.97 111.01C490.03 111.01 542.2 111.01 566.25 111.01Z" id="b6iLs0ErqF"></path></defs><g><g><g><g><filter id="shadow6739965" x="28.33" y="83.01" width="199.28" height="476.46" filterUnits="userSpaceOnUse" primitiveUnits="userSpaceOnUse"><feFlood></feFlood><feComposite in2="SourceAlpha" operator="in"></feComposite><feGaussianBlur stdDeviation="3.16"></feGaussianBlur><feOffset dx="-3" dy="-2" result="afterOffset"></feOffset><feFlood flood-color="#000000" flood-opacity="0.5"></feFlood><feComposite in2="afterOffset" operator="in"></feComposite><feMorphology operator="dilate" radius="0"></feMorphology><feComposite in2="SourceAlpha" operator="out"></feComposite></filter><path d="M176.61 111.01C187.65 111.01 196.61 119.97 196.61 131.01C196.61 210.71 196.61 429.78 196.61 509.48C196.61 520.52 187.65 529.48 176.61 529.48C152.55 529.48 100.38 529.48 76.33 529.48C65.28 529.48 56.33 520.52 56.33 509.48C56.33 429.78 56.33 210.71 56.33 131.01C56.33 119.97 65.28 111.01 76.33 111.01C100.38 111.01 152.55 111.01 176.61 111.01Z" id="a4Eo93cc3" fill="white" fill-opacity="1" filter="url(#shadow6739965)"></path></g><use xlink:href="#a9quPn2o7" opacity="1" fill="#e43e3e" fill-opacity="1"></use></g><g><g><filter id="shadow1354279" x="223.08" y="84.01" width="199.28" height="476.46" filterUnits="userSpaceOnUse" primitiveUnits="userSpaceOnUse"><feFlood></feFlood><feComposite in2="SourceAlpha" operator="in"></feComposite><feGaussianBlur stdDeviation="3.16"></feGaussianBlur><feOffset dx="-3" dy="-2" result="afterOffset"></feOffset><feFlood flood-color="#000000" flood-opacity="0.5"></feFlood><feComposite in2="afterOffset" operator="in"></feComposite><feMorphology operator="dilate" radius="0"></feMorphology><feComposite in2="SourceAlpha" operator="out"></feComposite></filter><path d="M371.36 112.01C382.41 112.01 391.36 120.97 391.36 132.01C391.36 211.71 391.36 430.78 391.36 510.48C391.36 521.52 382.41 530.48 371.36 530.48C347.31 530.48 295.14 530.48 271.08 530.48C260.04 530.48 251.08 521.52 251.08 510.48C251.08 430.78 251.08 211.71 251.08 132.01C251.08 120.97 260.04 112.01 271.08 112.01C295.14 112.01 347.31 112.01 371.36 112.01Z" id="bXFkIFVf5" fill="white" fill-opacity="1" filter="url(#shadow1354279)"></path></g><use xlink:href="#b2bFP26awC" opacity="1" fill="#6fcf55" fill-opacity="1"></use></g><g><g><filter id="shadow7265840" x="417.97" y="83.01" width="199.28" height="476.46" filterUnits="userSpaceOnUse" primitiveUnits="userSpaceOnUse"><feFlood></feFlood><feComposite in2="SourceAlpha" operator="in"></feComposite><feGaussianBlur stdDeviation="3.16"></feGaussianBlur><feOffset dx="-3" dy="-2" result="afterOffset"></feOffset><feFlood flood-color="#000000" flood-opacity="0.5"></feFlood><feComposite in2="afterOffset" operator="in"></feComposite><feMorphology operator="dilate" radius="0"></feMorphology><feComposite in2="SourceAlpha" operator="out"></feComposite></filter><path d="M566.25 111.01C577.3 111.01 586.25 119.97 586.25 131.01C586.25 210.71 586.25 429.78 586.25 509.48C586.25 520.52 577.3 529.48 566.25 529.48C542.2 529.48 490.03 529.48 465.97 529.48C454.93 529.48 445.97 520.52 445.97 509.48C445.97 429.78 445.97 210.71 445.97 131.01C445.97 119.97 454.93 111.01 465.97 111.01C490.03 111.01 542.2 111.01 566.25 111.01Z" id="dAaXKofo1" fill="white" fill-opacity="1" filter="url(#shadow7265840)"></path></g><use xlink:href="#b6iLs0ErqF" opacity="1" fill="#2276cf" fill-opacity="1"></use></g></g></g></svg>